<mxfile host="65bd71144e" scale="1" border="40">
    <diagram id="ZGiubuzTnFsMa45nnlA5" name="Page-1">
        <mxGraphModel dx="581" dy="695" grid="1" gridSize="10" guides="1" tooltips="1" connect="1" arrows="1" fold="1" page="1" pageScale="1" pageWidth="1600" pageHeight="900" background="#4D4D4D" math="0" shadow="0">
            <root>
                <mxCell id="0"/>
                <mxCell id="1" parent="0"/>
                <mxCell id="335" style="edgeStyle=none;html=1;strokeColor=#CCCCCC;" parent="1" source="316" edge="1">
                    <mxGeometry relative="1" as="geometry">
                        <mxPoint x="320" y="360" as="targetPoint"/>
                    </mxGeometry>
                </mxCell>
                <mxCell id="316" value="ZAP CRM" style="ellipse;shape=cloud;whiteSpace=wrap;html=1;fontSize=15;fillColor=#bac8d3;strokeColor=#23445d;fontFamily=Roboto;fontSource=https%3A%2F%2Ffonts.googleapis.com%2Fcss%3Ffamily%3DRoboto;" parent="1" vertex="1">
                    <mxGeometry x="120" y="320" width="120" height="80" as="geometry"/>
                </mxCell>
                <mxCell id="317" value="" style="group;fontFamily=Roboto;fontSource=https%3A%2F%2Ffonts.googleapis.com%2Fcss%3Ffamily%3DRoboto;fontSize=10;" parent="1" vertex="1" connectable="0">
                    <mxGeometry x="640" y="279.99999999999994" width="200" height="160" as="geometry"/>
                </mxCell>
                <mxCell id="318" value="S3 -&amp;nbsp;edm-recipes&lt;br&gt;&lt;i&gt;datasets/{dataset}&lt;/i&gt;" style="rounded=1;whiteSpace=wrap;html=1;fontFamily=Roboto;fontSize=16;fontColor=default;align=center;strokeColor=#23445d;fillColor=#bac8d3;fillStyle=solid;verticalAlign=top;spacing=10;fontSource=https%3A%2F%2Ffonts.googleapis.com%2Fcss%3Ffamily%3DRoboto;" parent="317" vertex="1">
                    <mxGeometry width="200" height="160" as="geometry"/>
                </mxCell>
                <mxCell id="319" value="" style="sketch=0;outlineConnect=0;fontColor=#232F3E;gradientColor=none;fillColor=#3F8624;strokeColor=none;dashed=0;verticalLabelPosition=bottom;verticalAlign=top;align=center;html=1;fontSize=16;fontStyle=0;aspect=fixed;pointerEvents=1;shape=mxgraph.aws4.bucket_with_objects;fontFamily=Roboto;fontSource=https%3A%2F%2Ffonts.googleapis.com%2Fcss%3Ffamily%3DRoboto;" parent="317" vertex="1">
                    <mxGeometry x="63.41463414634143" y="60.000000000000114" width="73.17073170731707" height="76.09756097560975" as="geometry"/>
                </mxCell>
                <mxCell id="320" value="" style="group;fontFamily=Roboto;fontSource=https%3A%2F%2Ffonts.googleapis.com%2Fcss%3Ffamily%3DRoboto;fontSize=10;" parent="1" vertex="1" connectable="0">
                    <mxGeometry x="319" y="520" width="200" height="160" as="geometry"/>
                </mxCell>
                <mxCell id="321" value="SQL - edm-data&lt;br&gt;&lt;i&gt;edm-zap&lt;/i&gt;" style="rounded=1;whiteSpace=wrap;html=1;fontFamily=Roboto;fontSize=16;fontColor=default;align=center;strokeColor=#23445d;fillColor=#bac8d3;fillStyle=solid;verticalAlign=top;spacing=10;fontSource=https%3A%2F%2Ffonts.googleapis.com%2Fcss%3Ffamily%3DRoboto;" parent="320" vertex="1">
                    <mxGeometry width="200" height="160" as="geometry"/>
                </mxCell>
                <mxCell id="322" value="" style="html=1;verticalLabelPosition=bottom;align=center;labelBackgroundColor=#ffffff;verticalAlign=top;strokeWidth=2;strokeColor=#0080F0;shadow=0;dashed=0;shape=mxgraph.ios7.icons.data;fontSize=16;fontColor=#000000;fillColor=none;fontFamily=Roboto;fontSource=https%3A%2F%2Ffonts.googleapis.com%2Fcss%3Ffamily%3DRoboto;" parent="320" vertex="1">
                    <mxGeometry x="68.29268292682923" y="60.00000000000006" width="63.41463414634146" height="78.81" as="geometry"/>
                </mxCell>
                <mxCell id="325" value="" style="group" parent="1" vertex="1" connectable="0">
                    <mxGeometry x="319" y="279.99999999999994" width="200" height="160" as="geometry"/>
                </mxCell>
                <mxCell id="323" value="github action runner&lt;br&gt;&lt;i&gt;zap_export&lt;/i&gt;" style="rounded=1;whiteSpace=wrap;html=1;fontFamily=Helvetica;fontSize=16;fontColor=default;align=center;strokeColor=#23445d;fillColor=#bac8d3;fillStyle=solid;verticalAlign=top;spacing=10;" parent="325" vertex="1">
                    <mxGeometry width="200" height="160" as="geometry"/>
                </mxCell>
                <mxCell id="324" value="" style="dashed=0;outlineConnect=0;html=1;align=center;labelPosition=center;verticalLabelPosition=bottom;verticalAlign=top;shape=mxgraph.weblogos.github" parent="325" vertex="1">
                    <mxGeometry x="62.5" y="57.00000000000006" width="75" height="75" as="geometry"/>
                </mxCell>
                <mxCell id="329" value="" style="group;fontFamily=Roboto;fontSource=https%3A%2F%2Ffonts.googleapis.com%2Fcss%3Ffamily%3DRoboto;fontSize=10;" parent="1" vertex="1" connectable="0">
                    <mxGeometry x="640" y="80" width="200" height="160" as="geometry"/>
                </mxCell>
                <mxCell id="330" value="S3 -&amp;nbsp;edm-publishing" style="rounded=1;whiteSpace=wrap;html=1;fontFamily=Roboto;fontSize=16;fontColor=default;align=center;strokeColor=#23445d;fillColor=#bac8d3;fillStyle=solid;verticalAlign=top;spacing=10;fontSource=https%3A%2F%2Ffonts.googleapis.com%2Fcss%3Ffamily%3DRoboto;" parent="329" vertex="1">
                    <mxGeometry width="200" height="160" as="geometry"/>
                </mxCell>
                <mxCell id="331" value="" style="sketch=0;outlineConnect=0;fontColor=#232F3E;gradientColor=none;fillColor=#3F8624;strokeColor=none;dashed=0;verticalLabelPosition=bottom;verticalAlign=top;align=center;html=1;fontSize=16;fontStyle=0;aspect=fixed;pointerEvents=1;shape=mxgraph.aws4.bucket_with_objects;fontFamily=Roboto;fontSource=https%3A%2F%2Ffonts.googleapis.com%2Fcss%3Ffamily%3DRoboto;" parent="329" vertex="1">
                    <mxGeometry x="63.41463414634143" y="60.000000000000114" width="73.17073170731707" height="76.09756097560975" as="geometry"/>
                </mxCell>
                <mxCell id="332" value="" style="group;fontFamily=Roboto;fontSource=https%3A%2F%2Ffonts.googleapis.com%2Fcss%3Ffamily%3DRoboto;fontSize=10;" parent="1" vertex="1" connectable="0">
                    <mxGeometry x="640" y="480" width="200" height="160" as="geometry"/>
                </mxCell>
                <mxCell id="333" value="S3 -&amp;nbsp;edm-private&lt;br&gt;" style="rounded=1;whiteSpace=wrap;html=1;fontFamily=Roboto;fontSize=16;fontColor=default;align=center;strokeColor=#23445d;fillColor=#bac8d3;fillStyle=solid;verticalAlign=top;spacing=10;fontSource=https%3A%2F%2Ffonts.googleapis.com%2Fcss%3Ffamily%3DRoboto;" parent="332" vertex="1">
                    <mxGeometry width="200" height="160" as="geometry"/>
                </mxCell>
                <mxCell id="334" value="" style="sketch=0;outlineConnect=0;fontColor=#232F3E;gradientColor=none;fillColor=#3F8624;strokeColor=none;dashed=0;verticalLabelPosition=bottom;verticalAlign=top;align=center;html=1;fontSize=16;fontStyle=0;aspect=fixed;pointerEvents=1;shape=mxgraph.aws4.bucket_with_objects;fontFamily=Roboto;fontSource=https%3A%2F%2Ffonts.googleapis.com%2Fcss%3Ffamily%3DRoboto;" parent="332" vertex="1">
                    <mxGeometry x="63.41463414634143" y="60.000000000000114" width="73.17073170731707" height="76.09756097560975" as="geometry"/>
                </mxCell>
                <mxCell id="336" style="edgeStyle=none;html=1;entryX=0.5;entryY=0;entryDx=0;entryDy=0;strokeColor=#CCCCCC;startArrow=classic;startFill=1;" parent="1" source="323" target="321" edge="1">
                    <mxGeometry relative="1" as="geometry"/>
                </mxCell>
                <mxCell id="338" style="edgeStyle=orthogonalEdgeStyle;html=1;entryX=0;entryY=0.5;entryDx=0;entryDy=0;strokeColor=#CCCCCC;startArrow=none;startFill=0;" parent="1" source="323" target="318" edge="1">
                    <mxGeometry relative="1" as="geometry"/>
                </mxCell>
                <mxCell id="339" style="edgeStyle=orthogonalEdgeStyle;shape=connector;rounded=1;html=1;entryX=0;entryY=0.5;entryDx=0;entryDy=0;labelBackgroundColor=default;strokeColor=#CCCCCC;fontFamily=Helvetica;fontSize=11;fontColor=default;startArrow=none;startFill=0;endArrow=classic;" parent="1" source="323" target="330" edge="1">
                    <mxGeometry relative="1" as="geometry"/>
                </mxCell>
                <mxCell id="341" value="" style="group" parent="1" vertex="1" connectable="0">
                    <mxGeometry x="960" y="279.99999999999994" width="200" height="160" as="geometry"/>
                </mxCell>
                <mxCell id="342" value="github runner&lt;br&gt;&lt;i&gt;knownprojects_build&lt;/i&gt;" style="rounded=1;whiteSpace=wrap;html=1;fontFamily=Helvetica;fontSize=16;fontColor=default;align=center;strokeColor=#23445d;fillColor=#bac8d3;fillStyle=solid;verticalAlign=top;spacing=10;" parent="341" vertex="1">
                    <mxGeometry width="200" height="160" as="geometry"/>
                </mxCell>
                <mxCell id="343" value="" style="dashed=0;outlineConnect=0;html=1;align=center;labelPosition=center;verticalLabelPosition=bottom;verticalAlign=top;shape=mxgraph.weblogos.github" parent="341" vertex="1">
                    <mxGeometry x="62.5" y="57.00000000000006" width="75" height="75" as="geometry"/>
                </mxCell>
                <mxCell id="344" style="edgeStyle=orthogonalEdgeStyle;shape=connector;rounded=1;html=1;entryX=0;entryY=0.5;entryDx=0;entryDy=0;labelBackgroundColor=default;strokeColor=#CCCCCC;fontFamily=Helvetica;fontSize=11;fontColor=default;startArrow=none;startFill=0;endArrow=classic;" parent="1" source="318" target="342" edge="1">
                    <mxGeometry relative="1" as="geometry"/>
                </mxCell>
                <mxCell id="345" value="" style="group;fontFamily=Roboto;fontSource=https%3A%2F%2Ffonts.googleapis.com%2Fcss%3Ffamily%3DRoboto;fontSize=10;" parent="1" vertex="1" connectable="0">
                    <mxGeometry x="960" y="520" width="200" height="160" as="geometry"/>
                </mxCell>
                <mxCell id="346" value="SQL - github&lt;br&gt;&lt;i&gt;postgres&lt;/i&gt;" style="rounded=1;whiteSpace=wrap;html=1;fontFamily=Roboto;fontSize=16;fontColor=default;align=center;strokeColor=#23445d;fillColor=#bac8d3;fillStyle=solid;verticalAlign=top;spacing=10;fontSource=https%3A%2F%2Ffonts.googleapis.com%2Fcss%3Ffamily%3DRoboto;" parent="345" vertex="1">
                    <mxGeometry width="200" height="160" as="geometry"/>
                </mxCell>
                <mxCell id="347" value="" style="html=1;verticalLabelPosition=bottom;align=center;labelBackgroundColor=#ffffff;verticalAlign=top;strokeWidth=2;strokeColor=#0080F0;shadow=0;dashed=0;shape=mxgraph.ios7.icons.data;fontSize=16;fontColor=#000000;fillColor=none;fontFamily=Roboto;fontSource=https%3A%2F%2Ffonts.googleapis.com%2Fcss%3Ffamily%3DRoboto;" parent="345" vertex="1">
                    <mxGeometry x="68.29268292682923" y="60.00000000000006" width="63.41463414634146" height="78.81" as="geometry"/>
                </mxCell>
                <mxCell id="348" style="edgeStyle=orthogonalEdgeStyle;shape=connector;rounded=1;html=1;entryX=0.5;entryY=0;entryDx=0;entryDy=0;labelBackgroundColor=default;strokeColor=#CCCCCC;fontFamily=Helvetica;fontSize=11;fontColor=default;startArrow=classic;startFill=1;endArrow=classic;" parent="1" source="342" target="346" edge="1">
                    <mxGeometry relative="1" as="geometry"/>
                </mxCell>
                <mxCell id="350" style="edgeStyle=orthogonalEdgeStyle;shape=connector;rounded=1;html=1;entryX=0;entryY=0.5;entryDx=0;entryDy=0;labelBackgroundColor=default;strokeColor=#CCCCCC;fontFamily=Helvetica;fontSize=11;fontColor=default;startArrow=none;startFill=0;endArrow=classic;" parent="1" source="333" target="342" edge="1">
                    <mxGeometry relative="1" as="geometry"/>
                </mxCell>
                <mxCell id="351" value="" style="group" parent="1" vertex="1" connectable="0">
                    <mxGeometry x="640" y="680" width="200" height="160" as="geometry"/>
                </mxCell>
                <mxCell id="357" value="" style="group" parent="351" vertex="1" connectable="0">
                    <mxGeometry width="200" height="160" as="geometry"/>
                </mxCell>
                <mxCell id="352" value="users&lt;br&gt;&lt;i&gt;DCP Housing&lt;/i&gt;" style="rounded=1;whiteSpace=wrap;html=1;fontFamily=Helvetica;fontSize=16;fontColor=default;align=center;strokeColor=#23445d;fillColor=#bac8d3;fillStyle=solid;verticalAlign=top;spacing=10;" parent="357" vertex="1">
                    <mxGeometry width="200" height="160" as="geometry"/>
                </mxCell>
                <mxCell id="355" value="" style="sketch=0;pointerEvents=1;shadow=0;dashed=0;html=1;strokeColor=none;labelPosition=center;verticalLabelPosition=bottom;verticalAlign=top;align=center;fillColor=#505050;shape=mxgraph.mscae.intune.user_group;fontFamily=Helvetica;fontSize=11;fontColor=default;aspect=fixed;" parent="357" vertex="1">
                    <mxGeometry x="60" y="63" width="80" height="59.2" as="geometry"/>
                </mxCell>
                <mxCell id="358" style="edgeStyle=orthogonalEdgeStyle;shape=connector;rounded=1;html=1;entryX=0.5;entryY=1;entryDx=0;entryDy=0;labelBackgroundColor=default;strokeColor=#CCCCCC;fontFamily=Helvetica;fontSize=11;fontColor=default;startArrow=none;startFill=0;endArrow=classic;" parent="1" source="352" target="333" edge="1">
                    <mxGeometry relative="1" as="geometry"/>
                </mxCell>
                <mxCell id="359" value="" style="group;fontFamily=Roboto;fontSource=https%3A%2F%2Ffonts.googleapis.com%2Fcss%3Ffamily%3DRoboto;fontSize=10;" parent="1" vertex="1" connectable="0">
                    <mxGeometry x="1240" y="280" width="200" height="160" as="geometry"/>
                </mxCell>
                <mxCell id="360" value="S3 -&amp;nbsp;edm-private&lt;br&gt;" style="rounded=1;whiteSpace=wrap;html=1;fontFamily=Roboto;fontSize=16;fontColor=default;align=center;strokeColor=#23445d;fillColor=#bac8d3;fillStyle=solid;verticalAlign=top;spacing=10;fontSource=https%3A%2F%2Ffonts.googleapis.com%2Fcss%3Ffamily%3DRoboto;" parent="359" vertex="1">
                    <mxGeometry width="200" height="160" as="geometry"/>
                </mxCell>
                <mxCell id="361" value="" style="sketch=0;outlineConnect=0;fontColor=#232F3E;gradientColor=none;fillColor=#3F8624;strokeColor=none;dashed=0;verticalLabelPosition=bottom;verticalAlign=top;align=center;html=1;fontSize=16;fontStyle=0;aspect=fixed;pointerEvents=1;shape=mxgraph.aws4.bucket_with_objects;fontFamily=Roboto;fontSource=https%3A%2F%2Ffonts.googleapis.com%2Fcss%3Ffamily%3DRoboto;" parent="359" vertex="1">
                    <mxGeometry x="63.41463414634143" y="60.000000000000114" width="73.17073170731707" height="76.09756097560975" as="geometry"/>
                </mxCell>
                <mxCell id="362" style="edgeStyle=orthogonalEdgeStyle;shape=connector;rounded=1;html=1;entryX=0;entryY=0.5;entryDx=0;entryDy=0;labelBackgroundColor=default;strokeColor=#CCCCCC;fontFamily=Helvetica;fontSize=11;fontColor=default;startArrow=none;startFill=0;endArrow=classic;" parent="1" source="342" target="360" edge="1">
                    <mxGeometry relative="1" as="geometry"/>
                </mxCell>
            </root>
        </mxGraphModel>
    </diagram>
</mxfile>